<svg xmlns="http://www.w3.org/2000/svg" viewBox="0 0 1600 900" role="img" aria-label="Night Ridge, a fictional moonlit mastery world"><defs><linearGradient id="sky" x1="0" y1="0" x2="0" y2="1"><stop stop-color="#070b1a"/><stop offset=".5" stop-color="#202a4a"/><stop offset="1" stop-color="#53617a"/></linearGradient><linearGradient id="ridge" x1="0" y1="0" x2="0" y2="1"><stop stop-color="#242d45"/><stop offset="1" stop-color="#0b0f18"/></linearGradient><radialGradient id="moon"><stop stop-color="#f4fbff"/><stop offset=".65" stop-color="#d6e5ff"/><stop offset="1" stop-color="#92b3e8"/></radialGradient><radialGradient id="aura"><stop stop-color="#71f4ff" stop-opacity=".22"/><stop offset="1" stop-color="#71f4ff" stop-opacity="0"/></radialGradient></defs><rect width="1600" height="900" fill="url(#sky)"/><circle cx="1240" cy="175" r="165" fill="url(#aura)"/><circle cx="1240" cy="175" r="66" fill="url(#moon)"/><g fill="#d9e8ff"><circle cx="120" cy="120" r="2"/><circle cx="260" cy="180" r="3"/><circle cx="410" cy="100" r="2"/><circle cx="560" cy="210" r="2"/><circle cx="730" cy="135" r="3"/><circle cx="900" cy="190" r="2"/><circle cx="1060" cy="95" r="2"/><circle cx="1400" cy="115" r="3"/><circle cx="1510" cy="225" r="2"/></g><path d="M0 500L200 370 350 450 510 300 690 480 880 335 1050 455 1240 320 1410 440 1600 345V900H0Z" fill="#29344f"/><path d="M0 620L210 470 390 575 570 420 735 590 930 455 1100 585 1280 440 1440 565 1600 485V900H0Z" fill="url(#ridge)"/><path d="M0 760 C300 700 500 735 760 700 C1000 670 1280 720 1600 660V900H0Z" fill="#080b12"/><g stroke="#6cf5ff" stroke-width="4" opacity=".5"><path d="M250 610l75-55 75 20"/><path d="M675 625l90-65 95 24"/><path d="M1160 610l80-60 88 20"/></g><g fill="#7d8db3" opacity=".75"><rect x="312" y="545" width="7" height="70"/><rect x="758" y="548" width="7" height="72"/><rect x="1235" y="538" width="7" height="72"/></g><path d="M650 900 C685 790 730 720 800 680 C875 720 920 790 955 900Z" fill="#141927"/></svg>